<?xml version="1.0" encoding="UTF-8" standalone="no"?>
<!DOCTYPE svg PUBLIC "-//W3C//DTD SVG 1.1//EN" "http://www.w3.org/Graphics/SVG/1.1/DTD/svg11.dtd">
<svg width="100%" height="100%" viewBox="0 0 362 60" version="1.1" xmlns="http://www.w3.org/2000/svg" xmlns:xlink="http://www.w3.org/1999/xlink" xml:space="preserve" xmlns:serif="http://www.serif.com/" style="fill-rule:evenodd;clip-rule:evenodd;stroke-linejoin:round;stroke-miterlimit:2;">
    <g id="Artboard1" transform="matrix(1,0,0,1,-24.6291,-23.7525)">
        <rect x="24.629" y="23.753" width="361.285" height="59.607" style="fill:none;"/>
        <g transform="matrix(1,0,0,1,0.62914,0.752533)">
            <g>
                <g>
                    <rect x="26.2" y="25.7" width="8.7" height="53.1" style="fill:white;fill-rule:nonzero;"/>
                </g>
                <g>
                    <path d="M66.9,78.8L66.9,33.4L41.5,33.4L41.5,25.7L101.2,25.7L101.2,33.4L75.6,33.4L75.6,78.8L66.9,78.8Z" style="fill:white;fill-rule:nonzero;"/>
                </g>
                <g>
                    <path d="M107.8,78.8L107.8,25.7L160.4,25.7L160.4,33.4L116.5,33.4L116.5,47.5L158.9,47.5L158.9,55.1L116.5,55.1L116.5,71.1L161,71.1L161,78.7L107.8,78.7L107.8,78.8Z" style="fill:white;fill-rule:nonzero;"/>
                </g>
                <g>
                    <path d="M224.2,78.8L179.2,34.6L179.2,78.8L170.5,78.8L170.5,25.7L182.5,25.7L227.3,69.7L227.3,25.7L236,25.7L236,78.8L224.2,78.8Z" style="fill:white;fill-rule:nonzero;"/>
                </g>
                <g>
                    <path d="M272.6,79.3C269,79.3 265.4,79.2 261.8,78.8C257.4,78.3 252.3,77.1 249.4,72.6C246.1,67.1 246.2,58.3 246.2,52.6C246.2,47.5 246.2,42.2 247.3,37.1C249.4,27.4 257.3,25.4 265.4,25.3C272.9,25.2 280.3,25.2 287.8,25.2C298.3,25.2 304.8,25.9 308.9,29.7C312.9,33.6 313.7,39.9 313.7,50.2C313.7,54.7 313.7,59.3 313.2,64C312.3,74.2 306.5,78.3 296.6,78.9C292.3,79.3 288.1,79.3 284,79.3L272.6,79.3ZM256.6,67.6C257.9,69.7 260.5,71 266.7,71.1L279.7,71.3L284.4,71.3C288.5,71.3 292.6,71.2 296.6,70.8C300.4,70.4 302.1,69.2 303.2,67.4C304.3,65.5 304.6,62.7 304.6,59.2C304.7,55.7 304.7,52.3 304.7,48.8C304.7,44.3 304.4,37.9 302.8,35.7C302.2,34.8 301,34.1 299.9,33.8C297.5,33.1 294.5,33 291.8,33L279.9,32.9L268.2,33.1C262.7,33.1 259.5,33.6 257.9,35C256.3,36.3 255.4,39 255.3,44.7L255.1,52.3L255.1,56C255,61.6 255.2,65.5 256.6,67.6Z" style="fill:white;fill-rule:nonzero;"/>
                </g>
                <g>
                    <path d="M372.8,42.2L372.8,41C372.8,38.4 372.4,35.5 370.4,34.7C367.6,33.2 359.4,33.1 354.4,33.1L352.3,33.1C347.7,33.1 338,33.5 334.2,35.2C332.2,36 331.6,38.4 331.6,41.1C331.6,44.2 332.5,45.5 333.8,46.4C335.2,47.3 337.5,47.7 340.3,47.8C342.1,47.9 343.9,47.9 345.7,47.9C349.6,47.9 353.6,47.8 357.6,47.8C361.1,47.8 364.7,47.9 368.2,48.3C377.7,49 382.8,53.2 382.5,63.2C382.6,68.9 381.1,74.2 375,76.8C369.9,79.1 362.1,79.2 355.9,79.2L351.9,79.2C346.8,79.2 341.5,79.1 336.4,78.4C331,77.7 327.4,76.4 325.2,73.6C323.1,70.8 322.6,67 322.6,61.7L322.6,60.4L331.3,60.4L331.3,62.7C331.5,66.9 331.3,68.9 334.8,70C339.1,71.2 347.4,71.3 352.3,71.3C357,71.3 361.8,71.1 366.5,70.5C372,69.6 373.5,68.6 373.7,63.1C373.7,59.4 372.8,58 371.4,57.1C369.9,56.2 367.3,56 363.8,55.9L352.2,55.8C347.7,55.7 343.1,55.7 338.6,55.4C334.1,55.1 330.2,54.5 327.2,52.5C324.2,50.5 322.5,47.1 322.5,42.2C322.4,35.9 324.3,29.9 331,27.3C336.8,25.2 346.6,25.1 352.4,25.1C357.4,25.1 362.5,25.2 367.5,25.8C376.7,26.6 381.4,31.8 381.2,40.9L381.2,42.2L372.8,42.2Z" style="fill:white;fill-rule:nonzero;"/>
                </g>
            </g>
        </g>
    </g>
</svg>
