<svg xmlns="http://www.w3.org/2000/svg" viewBox="0 0 150 50"><defs><style>.cls-1{fill:#20e478;}.cls-2{fill:#162440;}</style></defs><title>smive Logo0</title><g id="Logos"><g id="smive_Logo" data-name="smive Logo"><circle id="I_Punkt" data-name="I Punkt" class="cls-1" cx="67.93" cy="11.03" r="3.53"/><path id="I" class="cls-1" d="M82.77,42.5A17.16,17.16,0,0,1,65.71,26a.67.67,0,0,1,.64-.7h3.5a.68.68,0,0,1,.66.64,12.26,12.26,0,0,0,23.32,4.76.67.67,0,0,1,.85-.33l3.2,1.36a.68.68,0,0,1,.35.89v0A17,17,0,0,1,82.77,42.5Z"/><path id="S" class="cls-2" d="M20.22,33a11.17,11.17,0,0,1-3.49-.5,8.39,8.39,0,0,1-2.65-1.38A7.56,7.56,0,0,1,12.25,29a7.93,7.93,0,0,1-.78-1.76.67.67,0,0,1,.43-.84.69.69,0,0,1,.2,0h3.68a.69.69,0,0,1,.6.39,3.27,3.27,0,0,0,1.17,1.33,4.63,4.63,0,0,0,2.67.67,5.48,5.48,0,0,0,3.1-.63,1.88,1.88,0,0,0,.88-1.56,1.55,1.55,0,0,0-.9-1.47,9,9,0,0,0-2.25-.78l-2.93-.64a11.74,11.74,0,0,1-2.93-1,6.1,6.1,0,0,1-2.24-2,5.86,5.86,0,0,1-.9-3.46,5.46,5.46,0,0,1,2-4.35,7.88,7.88,0,0,1,2.49-1.33A10.8,10.8,0,0,1,20,11a11.47,11.47,0,0,1,3.44.46A8.28,8.28,0,0,1,26,12.76a7,7,0,0,1,1.75,2,8,8,0,0,1,.75,1.62.66.66,0,0,1-.42.83.52.52,0,0,1-.21,0h-3.7a.66.66,0,0,1-.57-.33,3.68,3.68,0,0,0-1-1A4.49,4.49,0,0,0,20,15.21a4.21,4.21,0,0,0-2.43.54,1.69,1.69,0,0,0-.76,1.45,1.58,1.58,0,0,0,.9,1.48A10.64,10.64,0,0,0,20,19.5c.91.22,1.88.45,2.93.67a11.67,11.67,0,0,1,2.93,1.06,6.53,6.53,0,0,1,2.25,2,5.69,5.69,0,0,1,.9,3.38,5.84,5.84,0,0,1-.54,2.51,5.55,5.55,0,0,1-1.61,2,8,8,0,0,1-2.73,1.35A13.49,13.49,0,0,1,20.22,33Z"/><path id="M" class="cls-2" d="M33,11.71h2.59a.66.66,0,0,1,.65.52l.45,2a.14.14,0,0,0,.12.1h0a.2.2,0,0,0,.16-.09,5.68,5.68,0,0,1,5.13-2.9,7.29,7.29,0,0,1,2.17.3,6,6,0,0,1,1.71.82,6.25,6.25,0,0,1,1.26,1.15A6.61,6.61,0,0,1,48,14.82a.17.17,0,0,0,.14.09h0a.15.15,0,0,0,.14-.1,4.66,4.66,0,0,1,.84-1.22,7.28,7.28,0,0,1,1.44-1.15,7,7,0,0,1,1.91-.82,8.52,8.52,0,0,1,2.35-.3,7.85,7.85,0,0,1,3,.58,6.67,6.67,0,0,1,2.41,1.69,7.68,7.68,0,0,1,1.57,2.69,10.77,10.77,0,0,1,.56,3.61V32.18a.66.66,0,0,1-.66.66H58.46a.67.67,0,0,1-.66-.66h0V20.28a6,6,0,0,0-.34-2.09,4.23,4.23,0,0,0-.92-1.5,3.78,3.78,0,0,0-1.33-.9,4.37,4.37,0,0,0-1.6-.3,3.74,3.74,0,0,0-2.83,1.26,5,5,0,0,0-1.15,3.52V32.16a.67.67,0,0,1-.67.67H45.71a.66.66,0,0,1-.66-.67h0V20.28a5,5,0,0,0-1.2-3.59,4.08,4.08,0,0,0-3-1.2A3.71,3.71,0,0,0,38,16.75a5,5,0,0,0-1.16,3.52V32.16a.67.67,0,0,1-.66.67H33a.66.66,0,0,1-.66-.67h0V12.38a.66.66,0,0,1,.66-.67Z"/><path id="E" class="cls-2" d="M128.76,33a11.33,11.33,0,0,1-4.19-.74,8.65,8.65,0,0,1-3.18-2.13,9.57,9.57,0,0,1-2-3.43,15.6,15.6,0,0,1,0-9.32,9.66,9.66,0,0,1,2-3.43,8.76,8.76,0,0,1,3.14-2.13A10.71,10.71,0,0,1,128.6,11a10.13,10.13,0,0,1,4.24.84A9.21,9.21,0,0,1,136,14.12a9.51,9.51,0,0,1,1.93,3.31,11.59,11.59,0,0,1,.66,4,7,7,0,0,1,0,.8c0,.24-.05.46-.08.64h0a.64.64,0,0,1-.63.56H124.13a.64.64,0,0,0-.64.63.34.34,0,0,0,0,.1A5.76,5.76,0,0,0,125,27.27a5,5,0,0,0,3.81,1.5,4.6,4.6,0,0,0,2.65-.68A7.35,7.35,0,0,0,133,26.63a.63.63,0,0,1,.51-.25h3.74a.64.64,0,0,1,.64.63.61.61,0,0,1,0,.24,10.47,10.47,0,0,1-.91,1.68A9,9,0,0,1,135,31a9.37,9.37,0,0,1-2.71,1.42A11,11,0,0,1,128.76,33ZM133,19.8a.65.65,0,0,0,.64-.64.57.57,0,0,0,0-.18,5.64,5.64,0,0,0-1.43-2.45,5.43,5.43,0,0,0-7-.08A5.85,5.85,0,0,0,123.64,19a.65.65,0,0,0,.41.81.69.69,0,0,0,.2,0Z"/><path id="V" class="cls-2" d="M97.72,11.68h3.56a.65.65,0,0,1,.63.44l5.39,15.6a.14.14,0,0,0,.13.1h0a.14.14,0,0,0,.13-.1l5.4-15.6a.63.63,0,0,1,.62-.44h3.56a.65.65,0,0,1,.66.66.59.59,0,0,1,0,.23l-7.28,19.79a.67.67,0,0,1-.62.44H105a.68.68,0,0,1-.63-.44L97.1,12.57a.68.68,0,0,1,.4-.86A.83.83,0,0,1,97.72,11.68Z"/></g></g></svg>