<?xml version="1.0" encoding="UTF-8" standalone="no"?>
<!DOCTYPE svg PUBLIC "-//W3C//DTD SVG 1.1//EN" "http://www.w3.org/Graphics/SVG/1.1/DTD/svg11.dtd">
<svg width="100%" height="100%" viewBox="0 0 132 38" version="1.1" xmlns="http://www.w3.org/2000/svg" xmlns:xlink="http://www.w3.org/1999/xlink" xml:space="preserve" xmlns:serif="http://www.serif.com/" style="fill-rule:evenodd;clip-rule:evenodd;stroke-linejoin:round;stroke-miterlimit:2;">
    <g id="Artboard1" transform="matrix(1,0,0,0.983074,-8.9993,-6.03948)">
        <rect x="8.999" y="6.143" width="131.702" height="37.806" style="fill:none;"/>
        <g id="Logos" transform="matrix(1,0,0,1.01722,0.999297,-0.61076)">
            <g id="smive_Logo">
                <g>
                    <circle id="I_Punkt" cx="67.93" cy="11.03" r="3.53" style="fill:white;"/>
                    <path id="I" d="M82.77,42.5C73.638,42.454 66.061,35.125 65.71,26C65.71,25.99 65.709,25.98 65.709,25.969C65.709,25.613 65.994,25.316 66.35,25.3L69.85,25.3C70.201,25.31 70.489,25.59 70.51,25.94C70.781,32.468 76.225,37.692 82.759,37.692C87.482,37.692 91.801,34.964 93.83,30.7C93.982,30.386 94.356,30.241 94.68,30.37L97.88,31.73C98.219,31.88 98.376,32.28 98.23,32.62C95.454,38.64 89.399,42.509 82.77,42.5Z" style="fill:white;fill-rule:nonzero;"/>
                    <path id="S" d="M20.22,33C19.038,33.019 17.86,32.85 16.73,32.5C15.771,32.202 14.874,31.735 14.08,31.12C13.343,30.533 12.723,29.814 12.25,29C11.919,28.447 11.658,27.856 11.47,27.24C11.359,26.892 11.553,26.514 11.9,26.4C11.966,26.39 12.034,26.39 12.1,26.4L15.78,26.4C16.037,26.408 16.268,26.559 16.38,26.79C16.64,27.332 17.045,27.793 17.55,28.12C18.351,28.609 19.283,28.843 20.22,28.79C21.293,28.889 22.371,28.67 23.32,28.16C23.858,27.822 24.189,27.235 24.2,26.6C24.225,25.974 23.869,25.392 23.3,25.13C22.588,24.771 21.831,24.509 21.05,24.35L18.12,23.71C17.103,23.507 16.118,23.171 15.19,22.71C14.288,22.24 13.518,21.553 12.95,20.71C12.297,19.679 11.982,18.469 12.05,17.25C12.012,15.571 12.75,13.964 14.05,12.9C14.793,12.31 15.637,11.86 16.54,11.57C17.655,11.193 18.823,11 20,11C21.163,10.978 22.323,11.133 23.44,11.46C24.363,11.741 25.229,12.181 26,12.76C26.706,13.309 27.3,13.988 27.75,14.76C28.06,15.27 28.311,15.814 28.5,16.38C28.611,16.723 28.422,17.097 28.08,17.21C28.011,17.224 27.939,17.224 27.87,17.21L24.17,17.21C23.935,17.209 23.717,17.083 23.6,16.88C23.334,16.485 22.995,16.146 22.6,15.88C21.822,15.397 20.915,15.163 20,15.21C19.154,15.141 18.307,15.329 17.57,15.75C17.084,16.07 16.797,16.619 16.81,17.2C16.789,17.827 17.143,18.41 17.71,18.68C18.439,19.04 19.208,19.315 20,19.5C20.91,19.72 21.88,19.95 22.93,20.17C23.95,20.391 24.935,20.747 25.86,21.23C26.755,21.712 27.526,22.397 28.11,23.23C28.757,24.234 29.072,25.417 29.01,26.61C29.018,27.476 28.834,28.334 28.47,29.12C28.097,29.903 27.546,30.588 26.86,31.12C26.045,31.741 25.118,32.199 24.13,32.47C22.86,32.837 21.542,33.016 20.22,33Z" style="fill:white;fill-rule:nonzero;"/>
                    <path id="M" d="M33,11.71L35.59,11.71C35.901,11.708 36.174,11.926 36.24,12.23L36.69,14.23C36.706,14.285 36.754,14.324 36.81,14.33C36.875,14.328 36.934,14.294 36.97,14.24C38.004,12.395 39.986,11.275 42.1,11.34C42.834,11.33 43.566,11.431 44.27,11.64C44.88,11.821 45.457,12.098 45.98,12.46C46.451,12.784 46.875,13.171 47.24,13.61C47.536,13.985 47.791,14.39 48,14.82C48.028,14.872 48.081,14.906 48.14,14.91C48.203,14.909 48.259,14.869 48.28,14.81C48.493,14.361 48.777,13.949 49.12,13.59C49.549,13.147 50.033,12.761 50.56,12.44C51.152,12.073 51.796,11.797 52.47,11.62C53.236,11.411 54.027,11.31 54.82,11.32C55.848,11.315 56.868,11.512 57.82,11.9C58.739,12.277 59.563,12.854 60.23,13.59C60.932,14.37 61.466,15.286 61.8,16.28C62.191,17.443 62.38,18.664 62.36,19.89L62.36,32.18C62.36,32.542 62.062,32.84 61.7,32.84L58.46,32.84C58.1,32.835 57.805,32.54 57.8,32.18L57.8,20.28C57.811,19.569 57.696,18.861 57.46,18.19C57.262,17.631 56.948,17.12 56.54,16.69C56.166,16.298 55.713,15.991 55.21,15.79C54.7,15.591 54.157,15.489 53.61,15.49C52.529,15.481 51.496,15.941 50.78,16.75C49.961,17.733 49.549,18.993 49.63,20.27L49.63,32.16C49.63,32.528 49.328,32.83 48.96,32.83L45.71,32.83C45.348,32.83 45.05,32.532 45.05,32.17C45.05,32.167 45.05,32.163 45.05,32.16L45.05,20.28C45.136,18.973 44.705,17.683 43.85,16.69C43.058,15.895 41.972,15.46 40.85,15.49C39.762,15.471 38.719,15.933 38,16.75C37.177,17.731 36.761,18.992 36.84,20.27L36.84,32.16C36.84,32.524 36.544,32.825 36.18,32.83L33,32.83C32.638,32.83 32.34,32.532 32.34,32.17C32.34,32.167 32.34,32.163 32.34,32.16L32.34,12.38C32.34,12.377 32.34,12.373 32.34,12.37C32.34,12.008 32.638,11.71 33,11.71Z" style="fill:white;fill-rule:nonzero;"/>
                    <path id="E" d="M128.76,33C127.329,33.02 125.907,32.769 124.57,32.26C123.364,31.796 122.278,31.069 121.39,30.13C120.491,29.139 119.81,27.971 119.39,26.7C118.44,23.666 118.44,20.414 119.39,17.38C119.812,16.111 120.493,14.942 121.39,13.95C122.268,13.019 123.34,12.292 124.53,11.82C125.82,11.284 127.203,11.005 128.6,11C130.057,10.972 131.504,11.258 132.84,11.84C134.044,12.366 135.121,13.143 136,14.12C136.861,15.081 137.518,16.207 137.93,17.43C138.383,18.714 138.607,20.068 138.59,21.43C138.605,21.696 138.605,21.964 138.59,22.23C138.59,22.47 138.54,22.69 138.51,22.87C138.47,23.187 138.199,23.428 137.88,23.43L124.13,23.43C123.783,23.43 123.495,23.713 123.49,24.06C123.485,24.093 123.485,24.127 123.49,24.16C123.663,25.327 124.19,26.413 125,27.27C125.997,28.29 127.385,28.837 128.81,28.77C129.742,28.817 130.666,28.58 131.46,28.09C132.041,27.68 132.56,27.189 133,26.63C133.121,26.471 133.31,26.378 133.51,26.38L137.25,26.38C137.597,26.38 137.885,26.663 137.89,27.01C137.906,27.089 137.906,27.171 137.89,27.25C137.639,27.837 137.334,28.399 136.98,28.93C136.435,29.721 135.766,30.42 135,31C134.181,31.619 133.265,32.098 132.29,32.42C131.153,32.805 129.96,33.001 128.76,33ZM133,19.8C133.349,19.795 133.635,19.509 133.64,19.16C133.65,19.1 133.65,19.04 133.64,18.98C133.38,18.055 132.888,17.211 132.21,16.53C130.216,14.809 127.243,14.775 125.21,16.45C124.474,17.149 123.933,18.028 123.64,19C123.535,19.334 123.718,19.697 124.05,19.81C124.116,19.82 124.184,19.82 124.25,19.81L133,19.8Z" style="fill:white;fill-rule:nonzero;"/>
                    <path id="V" d="M97.72,11.68L101.28,11.68C101.563,11.674 101.819,11.852 101.91,12.12L107.3,27.72C107.317,27.778 107.37,27.818 107.43,27.82C107.49,27.818 107.543,27.778 107.56,27.72L112.96,12.12C113.045,11.852 113.299,11.671 113.58,11.68L117.14,11.68C117.143,11.68 117.147,11.68 117.15,11.68C117.507,11.68 117.8,11.973 117.8,12.33C117.8,12.333 117.8,12.337 117.8,12.34C117.815,12.416 117.815,12.494 117.8,12.57L110.52,32.36C110.425,32.62 110.177,32.796 109.9,32.8L105,32.8C104.72,32.797 104.469,32.622 104.37,32.36L97.1,12.57C96.979,12.224 97.158,11.84 97.5,11.71C97.572,11.69 97.646,11.68 97.72,11.68Z" style="fill:white;fill-rule:nonzero;"/>
                </g>
            </g>
        </g>
    </g>
</svg>
