<?xml version="1.0" encoding="UTF-8" standalone="no"?>
<!DOCTYPE svg PUBLIC "-//W3C//DTD SVG 1.1//EN" "http://www.w3.org/Graphics/SVG/1.1/DTD/svg11.dtd">
<svg width="100%" height="100%" viewBox="0 0 2481 498" version="1.1" xmlns="http://www.w3.org/2000/svg" xmlns:xlink="http://www.w3.org/1999/xlink" xml:space="preserve" xmlns:serif="http://www.serif.com/" style="fill-rule:evenodd;clip-rule:evenodd;stroke-linejoin:round;stroke-miterlimit:2;">
    <g id="Artboard2" transform="matrix(1.0071,0,0,1.05767,0,-88.601)">
        <rect x="0" y="83.77" width="2463.24" height="470.48" style="fill:none;"/>
        <clipPath id="_clip1">
            <rect x="0" y="83.77" width="2463.24" height="470.48"/>
        </clipPath>
        <g clip-path="url(#_clip1)">
            <g id="Artboard1" transform="matrix(0.992946,0,0,0.945471,0,-867.168)">
                <rect x="0" y="931.749" width="2500" height="636.619" style="fill:none;"/>
                <g transform="matrix(1,0,0,1,0,0.748645)">
                    <path d="M1450.41,1106.67L1473.66,1399.04L1663.5,1399.04C1752.85,1387.63 1776.33,1281.52 1680.62,1252.11L1682.96,1243.18C1756.65,1228.98 1785.14,1123.21 1685.41,1106.67L1450.41,1106.67ZM1574.41,1141.33C1666.42,1133.39 1668.44,1233.79 1574.41,1232L1574.41,1141.33ZM1568.91,1270.45C1653.45,1262.53 1655.34,1362.91 1568.91,1361.14L1568.91,1270.45ZM1790.97,1106.67L1926.46,1106.67L1900.42,1399.04L1815.79,1399.04L1790.97,1106.67ZM1975,1106.67L2110.49,1106.67L2090.03,1336.88L2161.36,1336.88L2161.36,1399.05L1999.78,1399.05L1975,1106.67ZM2311.96,1099.51C2228.67,1099.51 2160.71,1168.04 2160.71,1252.01C2160.71,1335.99 2228.67,1404.4 2311.96,1404.4C2395.26,1404.4 2463.24,1335.99 2463.24,1252.01C2463.24,1168.04 2395.26,1099.51 2311.96,1099.51ZM2364.3,1159.55L2367.31,1161.44C2382.96,1170.5 2389.21,1189.07 2381.29,1202.48L2302.35,1336.64C2294.4,1350.06 2275.17,1353.54 2259.64,1344.47L2256.51,1342.58C2240.98,1333.41 2234.69,1314.97 2242.65,1301.54L2321.59,1167.37C2329.51,1153.96 2348.75,1150.38 2364.3,1159.55ZM860.31,1130.15L841.193,1158.2C825.214,1148.47 802.284,1130.7 781.26,1132.16C756.669,1133.83 746.047,1152.05 761.468,1171.29C780.689,1195.2 826.537,1210.97 850.466,1235.68C876.951,1262.97 890.932,1297.28 864.318,1343.58C842.295,1386.05 778.679,1417.92 714.621,1398.57C694.933,1392.64 652.677,1366.83 647.982,1348.49L668.099,1324.45C724.115,1385.5 790.857,1351.05 726.346,1299.95C697.384,1276.82 655.349,1262.74 642.833,1220.69C628.191,1173.74 660.161,1122.64 705.451,1103.18C758.679,1079.38 818.275,1102.64 860.31,1130.15ZM886.133,1106.44L873.384,1162.79L944.277,1162.79L963.731,1399.04L1053.51,1399.04L1074.31,1162.79L1154.82,1162.79L1138.94,1106.44L886.133,1106.44ZM1347.9,1106.67L1427.26,1399.04L1339.28,1399.04L1322.16,1358.69L1169.34,1358.89L1154.24,1399.05L1096.89,1399.05L1205.57,1106.68L1347.9,1106.68L1347.9,1106.67ZM1242.23,1173.19L1191.47,1300.52L1296.57,1300.52L1242.23,1173.19Z" style="fill:white;"/>
                    <path d="M272.002,1014.77C142.421,1014.77 36.756,1120.42 36.756,1250C36.756,1379.58 142.408,1485.25 272.002,1485.25C401.583,1485.25 507.235,1379.59 507.235,1250C507.235,1120.42 401.583,1014.77 272.002,1014.77ZM272.002,1040.59C387.264,1040.59 481.295,1134.62 481.295,1250C481.295,1365.28 387.264,1459.31 272.002,1459.31C156.727,1459.31 62.592,1365.28 62.592,1250C62.592,1134.62 156.727,1040.59 272.002,1040.59ZM218.113,1115.5C224.935,1117.85 231.199,1122.09 236.776,1126.9C241.692,1131.26 246.841,1136.29 249.188,1142.56C251.536,1148.71 250.744,1155.64 250.2,1162.23C249.409,1171.4 248.41,1180.68 245.064,1189.29C240.706,1200.37 233.43,1210.09 227.399,1220.38C220.694,1231.89 214.325,1243.74 206.712,1254.69C201.122,1262.75 193.301,1269.23 188.036,1277.5C184.469,1283.19 181.227,1289.58 180.773,1296.29C180.435,1301.76 182.666,1307.46 185.909,1311.81C188.593,1315.29 193.068,1318.07 197.309,1318.07C202.562,1318.07 208.048,1315.38 211.848,1311.81C216.997,1307.13 219.786,1300.19 223.249,1294.16C228.385,1285.32 232.755,1276.06 237.788,1267.21C241.367,1260.86 243.611,1253.13 249.188,1248.44L261.6,1238.04L279.265,1236.03L289.55,1231.89L294.803,1220.38L309.225,1208.98L319.627,1208.98L323.764,1216.24C323.764,1216.24 329.017,1212.1 335.165,1209.99C341.429,1207.98 346.578,1207.98 346.578,1207.98L350.702,1213.11L370.378,1209.99L381.778,1208.98L377.641,1224.63L379.768,1239.17L385.915,1241.18L381.778,1253.7L374.502,1266.11L377.641,1273.38L388.042,1271.39L384.904,1281.78C377.978,1288.71 370.702,1295.2 364.217,1302.48C360.3,1306.94 355.385,1311.3 353.815,1317.12C352.804,1320.92 355.942,1324.72 356.954,1328.52C356.954,1328.52 366.227,1328.52 373.49,1326.39C380.766,1324.39 404.579,1318.1 404.579,1318.1L425.382,1310.85L399.443,1337.78L381.778,1363.85L151.694,1363.85C148.335,1359.26 143.536,1355.56 141.409,1350.32C137.946,1342.03 134.821,1333.2 135.145,1324.38C135.482,1315.87 138.841,1307.48 143.42,1300.44C149.126,1291.83 158.283,1286.12 165.222,1278.62C172.35,1270.86 179.244,1262.88 185.896,1254.71C193.055,1246.21 200.318,1237.82 206.699,1228.77C213.184,1219.5 219.448,1209.87 224.26,1199.7C227.386,1193.1 230.187,1186.06 230.525,1178.9C230.862,1171.86 231.86,1162.57 226.387,1158.1L214.987,1148.71L196.31,1148.71L195.299,1140.43L214.987,1138.3L217.114,1133.15L196.31,1132.16L195.299,1123.77C198.1,1120.98 199.89,1116.84 203.573,1115.49C208.152,1113.82 213.521,1113.93 218.113,1115.5ZM183.898,1136.29L183.898,1147.69L162.096,1147.69L183.898,1136.29Z" style="fill:white;"/>
                </g>
            </g>
        </g>
    </g>
</svg>
